<?xml version="1.0" encoding="UTF-8"?>
<svg id="Layer_2" data-name="Layer 2" xmlns="http://www.w3.org/2000/svg" viewBox="0 0 744.02 434.31">
  <defs>
    <style>
      .cls-1 {
        fill: #fff;
      }
    </style>
  </defs>
  <g id="Layer_1-2" data-name="Layer 1">
    <g>
      <path class="cls-1" d="M372.01,122.74c-58.06,0-105.29,47.23-105.29,105.29s47.23,105.29,105.29,105.29,105.29-47.23,105.29-105.29-47.23-105.29-105.29-105.29ZM372.01,325.33c-53.65,0-97.29-43.65-97.29-97.29s43.65-97.29,97.29-97.29,97.29,43.65,97.29,97.29-43.65,97.29-97.29,97.29Z"/>
      <circle class="cls-1" cx="322.54" cy="174.13" r="8.02"/>
      <circle class="cls-1" cx="355.46" cy="174.13" r="8.02"/>
      <path class="cls-1" d="M388.38,166.11c-4.43,0-8.02,3.59-8.02,8.02s3.59,8.02,8.02,8.02,8.02-3.59,8.02-8.02-3.59-8.02-8.02-8.02Z"/>
      <path class="cls-1" d="M421.31,166.11c-4.43,0-8.02,3.59-8.02,8.02s3.59,8.02,8.02,8.02,8.02-3.59,8.02-8.02-3.59-8.02-8.02-8.02Z"/>
      <path class="cls-1" d="M322.54,198.84c-4.43,0-8.02,3.59-8.02,8.02s3.59,8.02,8.02,8.02,8.02-3.59,8.02-8.02-3.59-8.02-8.02-8.02Z"/>
      <path class="cls-1" d="M355.46,198.84c-4.43,0-8.02,3.59-8.02,8.02s3.59,8.02,8.02,8.02,8.02-3.59,8.02-8.02-3.59-8.02-8.02-8.02Z"/>
      <path class="cls-1" d="M388.38,198.84c-4.43,0-8.02,3.59-8.02,8.02s3.59,8.02,8.02,8.02,8.02-3.59,8.02-8.02-3.59-8.02-8.02-8.02Z"/>
      <path class="cls-1" d="M421.31,198.84c-4.43,0-8.02,3.59-8.02,8.02s3.59,8.02,8.02,8.02,8.02-3.59,8.02-8.02-3.59-8.02-8.02-8.02Z"/>
      <circle class="cls-1" cx="322.54" cy="239.58" r="8.02"/>
      <circle class="cls-1" cx="355.46" cy="239.58" r="8.02"/>
      <path class="cls-1" d="M388.38,231.56c-4.43,0-8.02,3.59-8.02,8.02s3.59,8.02,8.02,8.02,8.02-3.59,8.02-8.02-3.59-8.02-8.02-8.02Z"/>
      <path class="cls-1" d="M421.31,231.56c-4.43,0-8.02,3.59-8.02,8.02s3.59,8.02,8.02,8.02,8.02-3.59,8.02-8.02-3.59-8.02-8.02-8.02Z"/>
      <circle class="cls-1" cx="322.54" cy="272.31" r="8.02"/>
      <circle class="cls-1" cx="355.46" cy="272.31" r="8.02"/>
      <path class="cls-1" d="M355.46,293.53c-4.43,0-8.02,3.59-8.02,8.02s3.59,8.02,8.02,8.02,8.02-3.59,8.02-8.02-3.59-8.02-8.02-8.02Z"/>
      <path class="cls-1" d="M388.38,264.29c-4.43,0-8.02,3.59-8.02,8.02s3.59,8.02,8.02,8.02,8.02-3.59,8.02-8.02-3.59-8.02-8.02-8.02Z"/>
      <path class="cls-1" d="M421.31,264.29c-4.43,0-8.02,3.59-8.02,8.02s3.59,8.02,8.02,8.02,8.02-3.59,8.02-8.02-3.59-8.02-8.02-8.02Z"/>
      <path class="cls-1" d="M730.07,203.39c-6.61,0-12.15,4.62-13.58,10.8h-118.3c-.78-2.08-1.86-4.07-3.27-5.9-1.14-1.47-2.39-3.06-3.73-4.75h22.43c4.84,0,9.4-1.89,12.83-5.31l14.49-14.49c2.48-2.48,5.78-3.85,9.29-3.85h24.11c4.84,0,9.4-1.89,12.83-5.31l15.89-15.89c3.43-3.43,5.31-7.98,5.31-12.83v-7.07c6.87-.87,12.2-6.73,12.2-13.83,0-7.69-6.26-13.95-13.96-13.95s-13.95,6.26-13.95,13.95c0,6.58,4.58,12.09,10.71,13.56v7.34c0,3.51-1.37,6.81-3.85,9.29l-15.89,15.89c-2.48,2.48-5.78,3.85-9.29,3.85h-24.11c-4.84,0-9.4,1.89-12.83,5.31l-14.49,14.49c-2.48,2.48-5.78,3.85-9.29,3.85h-26.47c-4.24-5.17-9.23-11.04-14.9-17.35h18.64c4.84,0,9.4-1.89,12.83-5.31l63.48-63.48c3.43-3.43,5.31-7.98,5.31-12.83v-21.01c6.18-1.43,10.8-6.97,10.8-13.58,0-7.7-6.26-13.96-13.96-13.96s-13.95,6.26-13.95,13.96c0,7.07,5.28,12.91,12.11,13.82v20.77c0,3.51-1.37,6.81-3.85,9.29l-63.48,63.48c-2.48,2.48-5.78,3.85-9.29,3.85h-23.19c-2.85-3.09-5.85-6.27-9-9.5,6.08-5.87,20.95-20.69,58.46-58.59,3.38-3.42,5.24-7.95,5.24-12.76V27.58c6.27-1.36,10.99-6.95,10.99-13.63,0-7.69-6.26-13.95-13.95-13.95s-13.96,6.26-13.96,13.95c0,7,5.19,12.8,11.92,13.79v67.6c0,3.48-1.35,6.76-3.8,9.24-29.44,29.75-50.55,50.92-58.39,58.57-4.05-4.08-8.32-8.23-12.79-12.41l30.14-30.14c3.43-3.43,5.31-7.98,5.31-12.83v-29.43c6.55-1.15,11.55-6.86,11.55-13.73,0-7.69-6.26-13.95-13.95-13.95s-13.95,6.26-13.95,13.95c0,6.81,4.9,12.48,11.36,13.7v29.46c0,3.51-1.37,6.81-3.85,9.29l-30.28,30.28c-7.85-7.18-16.28-14.38-25.25-21.36-48.1-37.43-95.71-56.41-141.49-56.41s-93.39,18.98-141.49,56.41c-8.97,6.98-17.4,14.18-25.25,21.36l-30.28-30.28c-2.48-2.48-3.85-5.78-3.85-9.29v-29.46c6.46-1.22,11.36-6.9,11.36-13.7,0-7.69-6.26-13.95-13.96-13.95s-13.95,6.26-13.95,13.95c0,6.87,5,12.59,11.55,13.73v29.43c0,4.84,1.89,9.4,5.31,12.83l30.14,30.14c-4.47,4.18-8.74,8.33-12.79,12.41-7.84-7.65-28.95-28.82-58.39-58.57-2.45-2.47-3.8-5.75-3.8-9.24V27.74c6.73-.99,11.92-6.79,11.92-13.79,0-7.69-6.26-13.95-13.95-13.95s-13.96,6.26-13.96,13.95c0,6.68,4.72,12.27,10.99,13.63v67.76c0,4.81,1.86,9.34,5.24,12.76,37.51,37.9,52.38,52.73,58.46,58.59-3.15,3.24-6.15,6.41-9,9.5h-23.19c-3.51,0-6.81-1.37-9.29-3.85l-63.48-63.48c-2.48-2.48-3.85-5.78-3.85-9.29v-20.77c6.82-.91,12.11-6.75,12.11-13.82,0-7.7-6.26-13.96-13.95-13.96s-13.96,6.26-13.96,13.96c0,6.61,4.62,12.15,10.8,13.58v21.01c0,4.84,1.89,9.4,5.31,12.83l63.48,63.48c3.43,3.43,7.98,5.31,12.83,5.31h18.64c-5.67,6.31-10.66,12.18-14.9,17.35h-26.47c-3.51,0-6.81-1.37-9.29-3.85l-14.49-14.49c-3.43-3.43-7.98-5.31-12.83-5.31h-24.11c-3.51,0-6.81-1.37-9.29-3.85l-15.89-15.89c-2.48-2.48-3.85-5.78-3.85-9.29v-7.34c6.13-1.47,10.71-6.98,10.71-13.56,0-7.69-6.26-13.95-13.96-13.95s-13.95,6.26-13.95,13.95c0,7.1,5.33,12.96,12.2,13.83v7.07c0,4.84,1.89,9.4,5.31,12.83l15.89,15.89c3.43,3.43,7.98,5.31,12.83,5.31h24.11c3.51,0,6.81,1.37,9.29,3.85l14.49,14.49c3.43,3.43,7.98,5.31,12.83,5.31h22.43c-1.34,1.69-2.59,3.28-3.73,4.75-1.41,1.83-2.49,3.82-3.27,5.9H27.54c-1.43-6.18-6.97-10.8-13.58-10.8-7.69,0-13.95,6.26-13.95,13.95s6.26,13.96,13.95,13.96c7.07,0,12.91-5.28,13.82-12.11h116.83c-.45,3.44-.1,6.96,1.04,10.27h-24.17c-4.84,0-9.4,1.89-12.83,5.31l-17.47,17.47c-2.48,2.48-5.78,3.85-9.29,3.85h-10.33c-4.84,0-9.4,1.89-12.83,5.31l-18.31,18.31c-3.43,3.43-5.31,7.98-5.31,12.83v3.8c-6.59,1.11-11.64,6.84-11.64,13.75,0,7.7,6.26,13.96,13.95,13.96s13.96-6.26,13.96-13.96c0-6.78-4.86-12.43-11.27-13.69v-3.86c0-3.51,1.37-6.81,3.85-9.29l18.31-18.31c2.48-2.48,5.78-3.85,9.29-3.85h10.33c4.84,0,9.4-1.89,12.83-5.31l17.47-17.47c2.48-2.48,5.78-3.85,9.29-3.85h26.63c.32.48.65.95,1,1.41,4.22,5.45,9.86,12.45,16.76,20.41h-11.98c-4.84,0-9.4,1.89-12.83,5.31l-64.41,64.41c-3.43,3.43-5.31,7.98-5.31,12.82v17.54c-6.46,1.22-11.36,6.9-11.36,13.7,0,7.7,6.26,13.96,13.96,13.96s13.95-6.26,13.95-13.96c0-6.87-5-12.59-11.55-13.73v-17.51c0-3.51,1.37-6.81,3.85-9.29l64.41-64.41c2.48-2.48,5.78-3.85,9.29-3.85h16.38c4.18,4.7,8.76,9.66,13.7,14.78l-55.72,55.72c-3.43,3.43-5.31,7.98-5.31,12.83v61.91c-6.91.83-12.29,6.71-12.29,13.85,0,7.7,6.26,13.96,13.96,13.96s13.95-6.26,13.95-13.96c0-6.54-4.53-12.03-10.62-13.53v-62.22c0-3.51,1.37-6.81,3.85-9.29l55.67-55.67c4.34,4.4,8.93,8.9,13.77,13.43l-28.46,28.46c-3.43,3.43-5.31,7.98-5.31,12.83v31.52c-7,.74-12.48,6.68-12.48,13.88,0,7.69,6.26,13.95,13.96,13.95s13.95-6.26,13.95-13.95c0-6.48-4.44-11.92-10.43-13.49v-31.91c0-3.51,1.37-6.81,3.85-9.29l28.59-28.59c7.96,7.29,16.52,14.62,25.63,21.71,48.1,37.43,95.71,56.41,141.49,56.41s93.39-18.98,141.49-56.41c9.11-7.09,17.68-14.42,25.63-21.71l28.59,28.6c2.48,2.48,3.85,5.78,3.85,9.29v31.91c-5.99,1.57-10.43,7.01-10.43,13.49,0,7.69,6.26,13.95,13.96,13.95s13.95-6.26,13.95-13.95c0-7.2-5.48-13.14-12.48-13.88v-31.52c0-4.84-1.89-9.4-5.31-12.83l-28.46-28.46c4.84-4.53,9.43-9.03,13.77-13.43l55.67,55.67c2.48,2.48,3.85,5.78,3.85,9.29v62.22c-6.08,1.5-10.62,6.99-10.62,13.53,0,7.7,6.26,13.96,13.96,13.96s13.95-6.26,13.95-13.96c0-7.13-5.38-13.02-12.29-13.85v-61.91c0-4.84-1.89-9.4-5.31-12.83l-55.72-55.72c4.94-5.12,9.52-10.08,13.7-14.78h16.38c3.51,0,6.81,1.37,9.29,3.85l64.41,64.41c2.48,2.48,3.85,5.78,3.85,9.29v17.51c-6.55,1.15-11.55,6.86-11.55,13.73,0,7.7,6.26,13.96,13.95,13.96s13.96-6.26,13.96-13.96c0-6.81-4.9-12.48-11.36-13.7v-17.54c0-4.84-1.89-9.4-5.31-12.82l-64.41-64.41c-3.43-3.43-7.98-5.31-12.83-5.31h-11.98c6.9-7.95,12.54-14.96,16.76-20.41.36-.46.69-.93,1-1.41h26.63c3.51,0,6.81,1.37,9.29,3.85l17.47,17.47c3.43,3.43,7.98,5.31,12.83,5.31h10.33c3.51,0,6.81,1.37,9.29,3.85l18.31,18.31c2.48,2.48,3.85,5.78,3.85,9.29v3.86c-6.41,1.26-11.27,6.91-11.27,13.69,0,7.7,6.26,13.96,13.95,13.96s13.96-6.26,13.96-13.96c0-6.9-5.05-12.64-11.64-13.75v-3.8c0-4.84-1.89-9.4-5.31-12.83l-18.31-18.31c-3.43-3.43-7.98-5.31-12.83-5.31h-10.33c-3.51,0-6.81-1.37-9.29-3.85l-17.47-17.47c-3.43-3.43-7.98-5.31-12.83-5.31h-24.17c1.15-3.31,1.49-6.83,1.04-10.27h116.83c.91,6.82,6.75,12.11,13.82,12.11,7.7,0,13.96-6.26,13.96-13.96s-6.26-13.95-13.96-13.95ZM697.65,124.96c0-4.94,4.02-8.95,8.95-8.95s8.96,4.02,8.96,8.95-4.02,8.96-8.96,8.96-8.95-4.02-8.95-8.96ZM660.39,64.99c0-4.94,4.02-8.96,8.95-8.96s8.96,4.02,8.96,8.96-4.02,8.95-8.96,8.95-8.95-4.02-8.95-8.95ZM610.48,13.95c0-4.94,4.02-8.95,8.96-8.95s8.95,4.02,8.95,8.95-4.02,8.96-8.95,8.96-8.96-4.02-8.96-8.96ZM566.52,64.62c0-4.94,4.02-8.95,8.95-8.95s8.95,4.02,8.95,8.95-4.02,8.96-8.95,8.96-8.95-4.02-8.95-8.96ZM159.59,64.62c0-4.94,4.02-8.95,8.95-8.95s8.96,4.02,8.96,8.95-4.02,8.96-8.96,8.96-8.95-4.02-8.95-8.96ZM115.63,13.95c0-4.94,4.02-8.95,8.96-8.95s8.95,4.02,8.95,8.95-4.02,8.96-8.95,8.96-8.96-4.02-8.96-8.96ZM65.72,64.99c0-4.94,4.02-8.96,8.96-8.96s8.95,4.02,8.95,8.96-4.02,8.95-8.95,8.95-8.96-4.02-8.96-8.95ZM28.47,124.96c0-4.94,4.02-8.95,8.95-8.95s8.96,4.02,8.96,8.95-4.02,8.96-8.96,8.96-8.95-4.02-8.95-8.96ZM13.95,226.3c-4.94,0-8.95-4.02-8.95-8.96s4.02-8.95,8.95-8.95,8.96,4.02,8.96,8.95-4.02,8.96-8.96,8.96ZM46.38,310.1c0,4.94-4.02,8.96-8.96,8.96s-8.95-4.02-8.95-8.96,4.02-8.95,8.95-8.95,8.96,4.02,8.96,8.95ZM82.88,370.07c0,4.94-4.02,8.96-8.95,8.96s-8.96-4.02-8.96-8.96,4.02-8.95,8.96-8.95,8.95,4.02,8.95,8.95ZM133.54,420.36c0,4.94-4.02,8.96-8.95,8.96s-8.96-4.02-8.96-8.96,4.02-8.95,8.96-8.95,8.95,4.02,8.95,8.95ZM177.87,379.76c0,4.94-4.02,8.95-8.95,8.95s-8.96-4.02-8.96-8.95,4.02-8.96,8.96-8.96,8.95,4.02,8.95,8.96ZM584.06,379.76c0,4.94-4.02,8.95-8.95,8.95s-8.96-4.02-8.96-8.95,4.02-8.96,8.96-8.96,8.95,4.02,8.95,8.96ZM628.39,420.36c0,4.94-4.02,8.96-8.95,8.96s-8.96-4.02-8.96-8.96,4.02-8.95,8.96-8.95,8.95,4.02,8.95,8.95ZM679.05,370.07c0,4.94-4.02,8.96-8.96,8.96s-8.95-4.02-8.95-8.96,4.02-8.95,8.95-8.95,8.96,4.02,8.96,8.95ZM715.55,310.1c0,4.94-4.02,8.96-8.96,8.96s-8.95-4.02-8.95-8.96,4.02-8.95,8.95-8.95,8.96,4.02,8.96,8.95ZM588.59,230.98c-24.63,31.81-113.06,135.62-216.58,135.62s-191.94-103.8-216.58-135.62c-4.05-5.24-4.05-12.55,0-17.79,24.63-31.81,113.06-135.62,216.58-135.62s191.94,103.8,216.58,135.62h0c4.05,5.24,4.05,12.55,0,17.79ZM730.07,226.3c-4.94,0-8.95-4.02-8.95-8.96s4.02-8.95,8.95-8.95,8.96,4.02,8.96,8.95-4.02,8.96-8.96,8.96Z"/>
      <path class="cls-1" d="M288.83,316.43c-.76,0-1.4.28-1.92.81-.52.53-.78,1.18-.77,1.94,0,.76.28,1.4.81,1.92.53.52,1.18.78,1.94.77.76,0,1.4-.28,1.92-.81.52-.53.78-1.18.77-1.94,0-.76-.28-1.4-.81-1.92-.53-.52-1.18-.78-1.94-.77Z"/>
      <path class="cls-1" d="M283.14,322.24c-.76,0-1.4.28-1.92.81-.52.53-.78,1.18-.77,1.94,0,.76.28,1.4.81,1.92.53.52,1.18.78,1.94.77.76,0,1.4-.28,1.92-.81.52-.53.78-1.18.77-1.94,0-.76-.28-1.4-.81-1.92-.53-.52-1.18-.78-1.94-.77Z"/>
      <path class="cls-1" d="M288.69,309.87c.76,0,1.4-.28,1.92-.81.52-.53.78-1.18.77-1.94,0-.76-.28-1.4-.81-1.92-.53-.52-1.18-.78-1.94-.77-.76,0-1.4.28-1.92.81-.52.53-.78,1.18-.77,1.94,0,.76.28,1.4.81,1.92.53.52,1.18.78,1.94.77Z"/>
      <path class="cls-1" d="M294.73,310.4c-.76,0-1.4.28-1.92.81-.52.53-.78,1.18-.77,1.94,0,.76.28,1.4.81,1.92.53.52,1.18.78,1.94.77.76,0,1.4-.28,1.92-.81.52-.53.78-1.18.77-1.94,0-.76-.28-1.4-.81-1.92-.53-.52-1.18-.78-1.94-.77Z"/>
      <path class="cls-1" d="M257.62,289.07c-.74-.19-1.42-.09-2.06.29s-1.05.94-1.24,1.68c-.18.74-.09,1.42.29,2.06s.94,1.05,1.68,1.24c.74.19,1.42.09,2.06-.29.64-.38,1.05-.94,1.24-1.68.19-.74.09-1.42-.29-2.06-.38-.64-.94-1.05-1.68-1.24Z"/>
      <path class="cls-1" d="M268.98,292.22c-.74-.19-1.42-.09-2.06.29-.64.38-1.05.94-1.24,1.68-.19.74-.09,1.42.29,2.06s.94,1.05,1.68,1.24c.74.19,1.42.09,2.06-.29.64-.38,1.05-.94,1.24-1.68.19-.74.09-1.42-.29-2.06-.38-.64-.94-1.05-1.68-1.24Z"/>
      <path class="cls-1" d="M255.4,268.71c.72-.2,1.26-.64,1.63-1.3s.45-1.35.25-2.07c-.21-.72-.64-1.26-1.3-1.63-.66-.37-1.35-.45-2.07-.25-.71.2-1.26.64-1.63,1.3-.37.67-.45,1.35-.25,2.07.2.71.64,1.26,1.3,1.63s1.35.45,2.07.25Z"/>
      <path class="cls-1" d="M264.07,261.39c-.66-.37-1.35-.45-2.07-.25-.71.21-1.26.64-1.63,1.3s-.45,1.35-.25,2.07c.2.71.64,1.26,1.3,1.63.66.37,1.35.45,2.07.25.72-.2,1.26-.64,1.63-1.3s.45-1.35.25-2.07-.64-1.26-1.3-1.63Z"/>
      <path class="cls-1" d="M245.8,257.74c-.66-.37-1.35-.45-2.07-.25-.71.21-1.26.64-1.63,1.3s-.45,1.35-.25,2.07c.2.71.64,1.26,1.3,1.63.66.37,1.35.45,2.07.25.72-.2,1.26-.64,1.63-1.3s.45-1.35.25-2.07c-.21-.72-.64-1.26-1.3-1.63Z"/>
      <path class="cls-1" d="M248.79,232.08c-.74.01-1.38.3-1.91.84s-.78,1.19-.77,1.94.3,1.38.84,1.91c.55.53,1.19.78,1.94.77.74-.02,1.38-.3,1.91-.84.53-.55.78-1.19.77-1.94-.01-.74-.3-1.38-.84-1.91-.55-.53-1.19-.78-1.94-.77Z"/>
      <path class="cls-1" d="M243.27,226.39c-.01-.74-.3-1.38-.84-1.91s-1.19-.78-1.94-.77c-.74.01-1.38.3-1.91.84-.53.55-.78,1.19-.77,1.94.01.74.3,1.38.84,1.91s1.19.78,1.94.77,1.38-.3,1.91-.84c.53-.55.78-1.19.77-1.94Z"/>
      <path class="cls-1" d="M257.97,202.74c-.65.4-1.06.96-1.24,1.68-.17.72-.06,1.41.33,2.06.4.65.96,1.06,1.68,1.24.72.18,1.41.07,2.06-.33.65-.4,1.06-.96,1.24-1.68.17-.72.07-1.41-.33-2.06-.39-.65-.95-1.06-1.68-1.24-.72-.17-1.41-.06-2.06.33Z"/>
      <path class="cls-1" d="M242.64,203.81c.72.18,1.41.07,2.06-.33.65-.4,1.06-.96,1.24-1.68.18-.72.07-1.41-.33-2.06-.4-.65-.96-1.06-1.68-1.24-.72-.18-1.41-.07-2.06.33-.65.4-1.06.96-1.24,1.68-.18.72-.07,1.41.33,2.06s.96,1.06,1.68,1.24Z"/>
      <path class="cls-1" d="M252.56,197.44c.72.18,1.41.07,2.06-.33.65-.4,1.06-.96,1.24-1.68.18-.72.07-1.41-.33-2.06-.4-.65-.96-1.06-1.68-1.24-.72-.18-1.41-.07-2.06.33-.65.4-1.06.96-1.24,1.68-.18.72-.07,1.41.33,2.06.4.65.96,1.06,1.68,1.24Z"/>
      <path class="cls-1" d="M266.61,175.72c-.36.65-.43,1.34-.21,2.07.21.73.65,1.27,1.3,1.63.65.36,1.35.43,2.07.21.73-.21,1.27-.65,1.63-1.3.36-.65.43-1.34.21-2.07-.22-.73-.65-1.27-1.3-1.63s-1.34-.42-2.07-.21c-.73.22-1.27.65-1.63,1.3Z"/>
      <path class="cls-1" d="M253.15,171.51c.65.36,1.34.43,2.07.21.73-.21,1.27-.65,1.63-1.3.36-.65.43-1.34.21-2.07-.22-.73-.65-1.27-1.3-1.63-.65-.36-1.34-.43-2.07-.21-.73.21-1.27.65-1.63,1.3-.36.65-.42,1.35-.21,2.07.22.73.65,1.27,1.3,1.63Z"/>
      <path class="cls-1" d="M257.22,164.01c.65.36,1.34.43,2.07.21.73-.21,1.27-.65,1.63-1.3.36-.65.43-1.34.21-2.07-.22-.73-.65-1.27-1.3-1.63-.65-.36-1.34-.42-2.07-.21-.73.22-1.27.65-1.63,1.3-.36.65-.42,1.34-.21,2.07.22.73.65,1.27,1.3,1.63Z"/>
      <path class="cls-1" d="M264.37,167.9c.65.36,1.34.43,2.07.21.73-.21,1.27-.65,1.63-1.3.36-.65.43-1.34.21-2.07-.21-.73-.65-1.27-1.3-1.63-.65-.36-1.35-.43-2.07-.21s-1.27.65-1.63,1.3c-.36.65-.42,1.34-.21,2.07.22.73.65,1.27,1.3,1.63Z"/>
      <path class="cls-1" d="M305.38,121.85c-.21.73-.13,1.42.24,2.07s.91,1.08,1.64,1.28c.73.21,1.42.13,2.07-.24.65-.36,1.08-.91,1.28-1.64.21-.73.13-1.42-.24-2.07-.36-.65-.91-1.08-1.64-1.28-.73-.21-1.42-.13-2.07.24-.65.36-1.08.91-1.28,1.64Z"/>
      <path class="cls-1" d="M303.28,118.11c.73.21,1.42.13,2.07-.24.65-.36,1.08-.91,1.28-1.64.21-.73.13-1.42-.24-2.07-.36-.65-.91-1.08-1.64-1.28s-1.42-.13-2.07.24c-.65.36-1.08.91-1.28,1.64-.21.73-.13,1.42.24,2.07s.91,1.08,1.64,1.28Z"/>
      <path class="cls-1" d="M333.7,104.16c.65.39,1.34.49,2.06.3.72-.18,1.27-.6,1.66-1.26.39-.65.49-1.34.3-2.06-.19-.72-.61-1.27-1.26-1.66-.65-.39-1.34-.49-2.06-.3-.72.19-1.27.61-1.66,1.26-.39.65-.49,1.34-.3,2.06.18.72.6,1.27,1.26,1.66Z"/>
      <path class="cls-1" d="M343.98,109.92c.65.39,1.34.49,2.06.3.72-.19,1.27-.6,1.66-1.26.39-.65.49-1.34.3-2.06-.18-.72-.6-1.27-1.26-1.66-.65-.39-1.34-.49-2.06-.3-.72.18-1.27.6-1.66,1.26s-.49,1.34-.3,2.06c.19.72.6,1.27,1.26,1.66Z"/>
      <path class="cls-1" d="M368.68,99.29c.74.01,1.39-.25,1.93-.77s.83-1.17.84-1.91c.01-.74-.25-1.39-.77-1.93-.53-.55-1.17-.83-1.91-.84-.74-.01-1.39.25-1.93.77-.55.53-.83,1.17-.84,1.91s.25,1.39.77,1.93c.53.55,1.17.83,1.91.84Z"/>
      <path class="cls-1" d="M377.21,99.43c.74.01,1.39-.25,1.94-.77.54-.53.82-1.17.84-1.91.01-.74-.25-1.39-.78-1.93s-1.16-.83-1.91-.84c-.74-.01-1.39.25-1.93.77-.55.53-.83,1.17-.84,1.91-.01.74.25,1.39.78,1.94.53.55,1.17.83,1.91.84Z"/>
      <path class="cls-1" d="M368.41,115.86c.74.01,1.39-.25,1.93-.77s.83-1.17.84-1.91c.01-.74-.25-1.39-.77-1.93-.53-.55-1.17-.83-1.91-.84-.74-.01-1.39.25-1.93.77-.55.53-.83,1.17-.84,1.91s.25,1.39.77,1.93,1.17.83,1.91.84Z"/>
      <path class="cls-1" d="M377.08,107.56c.74.01,1.39-.25,1.94-.78.54-.53.82-1.17.84-1.91.01-.74-.25-1.39-.78-1.94-.53-.54-1.16-.82-1.91-.84-.74-.01-1.39.25-1.93.78-.55.53-.83,1.16-.84,1.91-.01.74.25,1.39.78,1.93.53.55,1.17.83,1.91.84Z"/>
      <path class="cls-1" d="M376.94,115.99c.74.01,1.39-.25,1.94-.78.54-.53.82-1.16.84-1.91.01-.74-.25-1.39-.78-1.93s-1.16-.83-1.91-.84c-.74-.01-1.39.25-1.93.77-.55.53-.83,1.17-.84,1.91-.01.74.25,1.39.77,1.94.53.55,1.17.82,1.91.84Z"/>
      <path class="cls-1" d="M401.6,102.71c.72.2,1.41.1,2.07-.27s1.09-.93,1.28-1.64.1-1.41-.28-2.07c-.38-.66-.93-1.09-1.64-1.28-.72-.2-1.41-.1-2.07.27-.66.38-1.09.93-1.28,1.64-.2.72-.1,1.41.27,2.07s.93,1.09,1.64,1.28Z"/>
      <path class="cls-1" d="M397.27,118.7c.72.19,1.41.1,2.07-.28s1.09-.93,1.28-1.64c.2-.72.1-1.41-.27-2.07-.38-.66-.93-1.09-1.64-1.28-.72-.19-1.41-.1-2.07.28s-1.09.93-1.28,1.64c-.19.72-.1,1.41.28,2.07.38.66.93,1.09,1.64,1.28Z"/>
      <path class="cls-1" d="M407.71,112.79c.72.19,1.41.1,2.07-.28.66-.38,1.09-.93,1.28-1.64.19-.72.1-1.41-.28-2.07s-.93-1.09-1.64-1.28c-.72-.2-1.41-.1-2.07.27-.66.38-1.09.93-1.28,1.64-.19.72-.1,1.41.28,2.07s.93,1.09,1.64,1.28Z"/>
      <path class="cls-1" d="M424.38,128.79c.64.37,1.33.46,2.07.27.73-.2,1.29-.62,1.66-1.26.37-.64.46-1.33.26-2.07-.2-.73-.62-1.29-1.26-1.66-.64-.37-1.33-.46-2.07-.27-.73.2-1.29.62-1.66,1.26-.37.64-.46,1.33-.26,2.07.2.73.62,1.29,1.26,1.66Z"/>
      <path class="cls-1" d="M432.68,114.45c.64.37,1.33.46,2.07.27.73-.2,1.29-.62,1.66-1.26.37-.64.46-1.33.26-2.07-.2-.73-.62-1.29-1.26-1.66-.64-.37-1.33-.46-2.07-.27-.73.2-1.29.62-1.66,1.26-.37.64-.46,1.33-.26,2.07.2.73.62,1.29,1.26,1.66Z"/>
      <path class="cls-1" d="M434.99,122.03c-.37.64-.46,1.33-.26,2.07.2.73.62,1.29,1.26,1.66.64.37,1.33.46,2.07.27.73-.2,1.29-.62,1.66-1.26s.46-1.33.26-2.07c-.2-.73-.62-1.29-1.26-1.66-.64-.37-1.33-.46-2.07-.27-.73.2-1.29.62-1.66,1.26Z"/>
      <path class="cls-1" d="M440.06,118.72c.64.37,1.33.46,2.07.27s1.29-.62,1.66-1.26c.37-.64.46-1.33.26-2.07-.2-.73-.62-1.29-1.26-1.66-.64-.37-1.33-.46-2.07-.27-.73.2-1.29.62-1.66,1.26-.37.64-.46,1.33-.26,2.07.2.73.62,1.29,1.26,1.66Z"/>
      <path class="cls-1" d="M461.62,134.53c.76,0,1.4-.27,1.93-.79.52-.53.79-1.17.78-1.93,0-.76-.27-1.4-.79-1.93s-1.17-.79-1.93-.78c-.76,0-1.4.27-1.93.79-.52.53-.79,1.17-.78,1.93s.27,1.4.79,1.93,1.17.79,1.93.78Z"/>
      <path class="cls-1" d="M461.92,140.88c-.76,0-1.4.27-1.93.79-.52.53-.79,1.17-.78,1.93s.27,1.4.79,1.93c.53.52,1.17.79,1.93.78.76,0,1.4-.27,1.93-.79.52-.53.79-1.17.78-1.93,0-.76-.27-1.4-.79-1.93s-1.17-.79-1.93-.78Z"/>
      <path class="cls-1" d="M467.67,140.55c.76,0,1.4-.27,1.93-.79s.79-1.17.78-1.93c0-.76-.27-1.4-.79-1.93-.53-.52-1.17-.79-1.93-.78-.76,0-1.4.27-1.93.79-.52.53-.79,1.17-.78,1.93,0,.76.27,1.4.79,1.93.53.52,1.17.79,1.93.78Z"/>
      <path class="cls-1" d="M499.61,205.09c.64.4,1.33.52,2.05.36.72-.17,1.29-.57,1.69-1.21s.52-1.33.36-2.05c-.17-.72-.57-1.29-1.21-1.69-.64-.4-1.33-.52-2.05-.36-.73.17-1.29.57-1.69,1.21-.4.64-.52,1.33-.36,2.05.17.73.57,1.29,1.21,1.69Z"/>
      <path class="cls-1" d="M485.31,199.61c.4-.64.52-1.33.36-2.05-.17-.72-.57-1.29-1.21-1.69-.64-.4-1.33-.52-2.05-.36-.73.17-1.29.57-1.69,1.21-.4.64-.52,1.33-.36,2.05s.57,1.29,1.21,1.69,1.33.52,2.05.36c.73-.17,1.29-.57,1.69-1.21Z"/>
      <path class="cls-1" d="M489.78,198.58c.64.4,1.33.52,2.05.36.72-.17,1.29-.57,1.69-1.21.4-.64.52-1.33.36-2.05-.17-.72-.57-1.29-1.21-1.69-.64-.4-1.33-.52-2.05-.36-.73.17-1.29.57-1.69,1.21-.4.64-.52,1.33-.36,2.05s.57,1.29,1.21,1.69Z"/>
      <path class="cls-1" d="M503.3,233.88c-.74-.02-1.39.22-1.95.74-.55.52-.84,1.15-.87,1.9-.02.74.22,1.39.74,1.95.52.55,1.15.84,1.89.87.74.02,1.39-.22,1.95-.74s.84-1.15.87-1.89c.02-.74-.22-1.39-.74-1.95s-1.15-.84-1.89-.87Z"/>
      <path class="cls-1" d="M492.63,227.73c-.02.74.22,1.39.74,1.95.52.55,1.15.84,1.9.87.74.02,1.39-.22,1.95-.74.55-.52.84-1.15.87-1.9.02-.74-.22-1.39-.74-1.95s-1.15-.84-1.89-.87c-.74-.02-1.39.22-1.95.74-.55.52-.84,1.15-.87,1.89Z"/>
      <path class="cls-1" d="M493.73,258.11c-.36-.67-.9-1.11-1.61-1.32s-1.4-.14-2.07.22c-.67.36-1.11.9-1.32,1.61-.21.71-.14,1.4.22,2.07.36.67.9,1.11,1.61,1.32.71.21,1.4.14,2.07-.22s1.11-.9,1.32-1.61.14-1.4-.22-2.07Z"/>
      <path class="cls-1" d="M497.46,267.3c-.71-.21-1.4-.14-2.07.22-.67.36-1.11.9-1.32,1.61-.21.71-.14,1.4.22,2.07.36.67.9,1.11,1.61,1.32.71.21,1.4.14,2.07-.22s1.11-.9,1.32-1.61.14-1.4-.22-2.07-.9-1.11-1.61-1.32Z"/>
      <path class="cls-1" d="M499.91,259.12c-.71-.21-1.4-.14-2.07.22s-1.11.9-1.32,1.61-.14,1.4.22,2.07.9,1.11,1.61,1.33c.71.21,1.4.14,2.07-.22.67-.36,1.11-.9,1.32-1.61.21-.71.14-1.4-.22-2.07s-.9-1.11-1.61-1.32Z"/>
      <path class="cls-1" d="M489.67,264.96c-.71-.21-1.4-.14-2.07.22-.67.36-1.11.9-1.33,1.61-.21.71-.14,1.4.22,2.07s.9,1.11,1.61,1.32c.71.21,1.4.14,2.07-.22.67-.36,1.11-.9,1.32-1.61.21-.71.14-1.4-.22-2.07s-.9-1.11-1.61-1.32Z"/>
      <path class="cls-1" d="M476.3,293.81c-.63-.39-1.32-.5-2.06-.32-.74.18-1.3.58-1.69,1.21s-.5,1.32-.32,2.06c.18.74.58,1.3,1.22,1.69s1.32.5,2.06.32c.74-.18,1.3-.58,1.69-1.21s.5-1.32.32-2.06c-.18-.74-.58-1.3-1.21-1.69Z"/>
      <path class="cls-1" d="M487.69,290.8c-.63-.39-1.32-.5-2.06-.32-.74.18-1.3.58-1.69,1.21s-.5,1.32-.32,2.06c.18.74.58,1.3,1.21,1.69s1.32.5,2.06.32c.74-.18,1.3-.58,1.69-1.21s.5-1.32.32-2.06c-.18-.74-.58-1.3-1.21-1.69Z"/>
      <path class="cls-1" d="M480.76,286.54c-.63-.39-1.32-.5-2.06-.32-.74.18-1.3.58-1.69,1.21s-.5,1.32-.32,2.06c.18.74.58,1.3,1.21,1.69s1.32.5,2.06.32c.74-.18,1.3-.58,1.69-1.22s.5-1.32.32-2.06c-.18-.74-.58-1.3-1.22-1.69Z"/>
      <path class="cls-1" d="M454.08,317.46c-.76-.02-1.41.23-1.95.74-.54.51-.82,1.15-.83,1.91-.02.76.23,1.41.74,1.95.51.54,1.15.82,1.91.83.76.02,1.41-.23,1.95-.74.54-.51.82-1.15.83-1.91.02-.76-.23-1.41-.74-1.95-.51-.54-1.15-.82-1.91-.83Z"/>
      <path class="cls-1" d="M452.48,306.22c-.54.51-.82,1.15-.83,1.91-.02.76.23,1.41.74,1.95.51.54,1.15.82,1.91.83.76.02,1.41-.23,1.95-.74.54-.51.82-1.15.83-1.91.02-.76-.23-1.41-.74-1.95-.51-.54-1.15-.82-1.91-.83-.76-.02-1.41.23-1.95.74Z"/>
      <path class="cls-1" d="M459.69,323.35c-.76-.02-1.41.23-1.95.74s-.82,1.15-.83,1.91c-.02.76.23,1.41.74,1.95.51.54,1.15.82,1.91.83s1.41-.23,1.95-.74.82-1.15.83-1.91c.02-.76-.23-1.41-.74-1.95-.51-.54-1.15-.82-1.91-.83Z"/>
      <path class="cls-1" d="M460.25,311.58c-.76-.02-1.41.23-1.95.74-.54.51-.82,1.15-.83,1.91-.02.76.23,1.41.74,1.95.51.54,1.15.82,1.91.83s1.41-.23,1.95-.74c.54-.51.82-1.15.83-1.91.02-.76-.23-1.41-.74-1.95-.51-.54-1.15-.82-1.91-.83Z"/>
    </g>
  </g>
</svg>